<svg width="247" height="111" viewBox="0 0 247 111" fill="none" xmlns="http://www.w3.org/2000/svg">
<g filter="url(#filter0_d)">
<circle r="27.5" transform="matrix(1 0 0 -1 31.5 75.5)" fill="url(#paint0_linear)" fill-opacity="0.67"/>
<circle r="27" transform="matrix(1 0 0 -1 31.5 75.5)" stroke="black"/>
</g>
<path d="M245.905 0.704376C216.441 0.704376 190.476 21.5071 160.363 22.321C142.185 22.8123 124.034 22.321 106.229 22.321" stroke="black" stroke-linecap="round" stroke-linejoin="round"/>
<path d="M107.891 9.01848C105.473 10.4931 88.1301 20.1116 94.9584 26.94C99.907 31.8885 109.164 22.7115 112.048 19.8268C115.163 16.7119 120.582 11.2008 116.945 6.52425C113.556 2.16741 104.573 4.03002 99.5774 4.03002" stroke="black" stroke-linecap="round" stroke-linejoin="round"/>
<path d="M101.24 14.0069C89.9756 33.8856 81.6989 56.1243 68.0762 74.515C65.0948 78.5398 61.5832 82.1824 56.3441 82.1824C46.7486 82.1824 34.855 79.2395 31.4018 68.8799" stroke="black" stroke-linecap="round" stroke-linejoin="round"/>
<defs>
<filter id="filter0_d" x="0" y="48" width="63" height="63" filterUnits="userSpaceOnUse" color-interpolation-filters="sRGB">
<feFlood flood-opacity="0" result="BackgroundImageFix"/>
<feColorMatrix in="SourceAlpha" type="matrix" values="0 0 0 0 0 0 0 0 0 0 0 0 0 0 0 0 0 0 127 0"/>
<feOffset dy="4"/>
<feGaussianBlur stdDeviation="2"/>
<feColorMatrix type="matrix" values="0 0 0 0 0 0 0 0 0 0 0 0 0 0 0 0 0 0 0.25 0"/>
<feBlend mode="normal" in2="BackgroundImageFix" result="effect1_dropShadow"/>
<feBlend mode="normal" in="SourceGraphic" in2="effect1_dropShadow" result="shape"/>
</filter>
<linearGradient id="paint0_linear" x1="0" y1="0" x2="55" y2="55" gradientUnits="userSpaceOnUse">
<stop stop-color="#FBF335"/>
<stop offset="0.359375" stop-color="#F7F27C"/>
<stop offset="0.9997" stop-color="#FEFDEB" stop-opacity="0.168661"/>
<stop offset="0.9998" stop-color="#FCFBD4" stop-opacity="0.339484"/>
<stop offset="0.9999" stop-color="white" stop-opacity="0.0208333"/>
<stop offset="1" stop-color="#FFFA84" stop-opacity="0.22"/>
</linearGradient>
</defs>
</svg>
